# xmcd
#
# Track frame offsets: 
#        150
#        21594
#        42138
#        66421
#        88320
#        108515
#        131185
#        153275
#        176009
#        198068
#
# Disc length: 2934 seconds
#
# Revision: 1
# Processed by: cddbd v1.5.2PL0 Copyright (c) Steve Scherf et al.
# Submitted via: ExactAudioCopy v0.99pb5
#
DISCID=8c0b740a
DTITLE=Cubanoson - Recordando A Cuba
DYEAR=2006
DGENRE=Salsa
TTITLE0=Cubanoson
TTITLE1=Monsieur Jose
TTITLE2=Recordando a Cuba
TTITLE3=En La Campiña
TTITLE4=No Te Preocupes
TTITLE5=Que Mala Suerte
TTITLE6=Guajiro Soy
TTITLE7=Son Bailadores
TTITLE8=Mujeres De Mayari
TTITLE9=Lagrimas Negras
EXTD=YEAR: 2006
EXTT0=
EXTT1=
EXTT2=
EXTT3=
EXTT4=
EXTT5=
EXTT6=
EXTT7=
EXTT8=
EXTT9=
PLAYORDER=
